<?xml version="1.0" standalone="no"?>
<!DOCTYPE svg PUBLIC "-//W3C//DTD SVG 20010904//EN"
 "http://www.w3.org/TR/2001/REC-SVG-20010904/DTD/svg10.dtd">
<svg version="1.0" xmlns="http://www.w3.org/2000/svg"
 width="640.000000pt" height="640.000000pt" viewBox="0 0 640.000000 640.000000"
 preserveAspectRatio="xMidYMid meet">
<metadata>
Created by potrace 1.14, written by Peter Selinger 2001-2017
</metadata>
<g transform="translate(0.000000,640.000000) scale(0.100000,-0.100000)"
fill="#000000" stroke="none">
<path d="M4327 6394 c-1 -1 -20 -5 -42 -9 -22 -4 -44 -8 -50 -9 -5 -2 -23 -6
-40 -10 -99 -25 -307 -117 -380 -168 -246 -175 -365 -307 -488 -540 -45 -86
-110 -260 -122 -328 -25 -143 -25 -314 0 -324 6 -2 53 -2 105 -1 93 3 256 41
287 67 7 6 13 7 13 3 0 -10 162 78 233 126 123 84 257 218 332 332 55 84 142
247 150 282 1 6 7 21 12 35 14 33 50 156 57 195 15 82 18 107 20 196 2 52 1
110 -2 128 -4 30 -6 32 -43 29 -22 -1 -41 -3 -42 -4z"/>
<path d="M4237 4934 c-1 -1 -28 -4 -59 -8 -161 -16 -448 -104 -632 -192 -16
-8 -37 -14 -46 -14 -9 0 -20 -3 -24 -7 -4 -5 -11 -8 -14 -9 -4 0 -14 -4 -22
-7 -47 -19 -152 -39 -200 -38 -54 2 -105 7 -105 11 0 2 -9 4 -20 5 -19 3 -196
64 -242 85 -48 21 -71 30 -163 64 -52 19 -108 37 -125 41 -16 4 -37 9 -45 12
-19 8 -14 7 -95 23 -122 24 -371 16 -473 -14 -9 -3 -28 -7 -42 -10 -120 -21
-394 -147 -493 -226 -7 -5 -41 -33 -77 -62 -86 -69 -180 -166 -248 -258 -31
-41 -60 -76 -64 -78 -4 -2 -8 -7 -8 -12 0 -5 -19 -41 -43 -82 -61 -103 -102
-194 -142 -313 -33 -96 -76 -266 -70 -276 3 -4 2 -10 -3 -13 -4 -2 -9 -24 -11
-47 -1 -23 -4 -46 -7 -50 -18 -30 -27 -509 -11 -634 4 -33 10 -80 12 -105 4
-39 40 -243 60 -335 3 -16 15 -64 26 -105 12 -41 23 -86 26 -100 7 -38 103
-321 119 -352 8 -16 12 -28 10 -28 -14 0 173 -382 247 -505 87 -145 269 -405
289 -413 4 -2 8 -8 8 -14 0 -5 6 -15 12 -22 7 -7 29 -32 48 -56 19 -24 49 -60
65 -80 136 -163 306 -293 445 -338 66 -22 158 -39 195 -36 103 7 183 18 200
27 11 6 21 10 23 9 1 -1 3 -2 5 -1 1 0 9 2 17 4 8 1 53 17 100 36 47 18 87 31
89 30 2 -2 7 1 10 6 3 4 22 14 41 21 141 54 228 83 262 87 22 3 43 7 47 9 15
10 111 18 201 19 122 0 212 -10 273 -29 12 -4 32 -8 43 -10 23 -2 174 -61 269
-104 66 -30 200 -74 255 -85 19 -3 78 -7 131 -9 254 -9 476 113 705 387 94
111 226 289 299 400 48 74 205 351 205 361 0 3 18 42 39 88 44 94 106 251 117
294 4 16 9 34 13 39 8 14 13 50 5 43 -6 -7 -127 54 -168 85 -6 4 -39 27 -73
50 -87 60 -205 169 -266 246 -28 36 -55 68 -59 69 -5 2 -8 10 -8 17 0 7 -4 15
-8 17 -9 4 -54 79 -93 158 -48 98 -92 231 -105 320 -3 25 -8 56 -11 70 -2 14
-6 84 -8 155 -5 184 20 343 76 490 13 33 24 62 24 65 3 15 41 87 54 103 8 9
11 17 7 17 -7 0 72 120 123 185 63 81 197 210 276 265 19 14 47 34 60 45 l25
21 -32 44 c-18 25 -40 52 -48 61 -8 8 -38 40 -65 70 -156 167 -391 305 -632
369 -91 25 -121 31 -238 46 -46 6 -252 13 -258 8z"/>
</g>
</svg>
