<svg class="svg" viewBox="0 0 30 30" xmlns="http://www.w3.org/2000/svg">
    <path d="M15 3C7.832 3 2 8.832 2 16c0 4.774 2.593 8.944 6.44 11.205l1.08-1.682C6.227 23.62 4 20.07 4 16 4 9.935 8.935 5 15 5s11 4.935 11 11c0 4.069-2.227 7.62-5.52 9.523l1.08 1.682C25.408 24.945 28 20.774 28 16c0-7.168-5.832-13-13-13zm0 4c-4.962 0-9 4.038-9 9 0 3.364 1.86 6.3 4.602 7.844l1.08-1.684A7.003 7.003 0 0 1 8 16c0-3.86 3.14-7 7-7s7 3.14 7 7a7.007 7.007 0 0 1-3.682 6.162l1.08 1.682C22.14 22.299 24 19.364 24 16c0-4.962-4.038-9-9-9zm0 4c-2.757 0-5 2.243-5 5 0 1.955 1.138 3.633 2.777 4.455l1.082-1.682A3.003 3.003 0 0 1 12 16c0-1.654 1.346-3 3-3s3 1.346 3 3a3 3 0 0 1-1.861 2.771l1.082 1.684C18.86 19.635 20 17.955 20 16c0-2.757-2.243-5-5-5zm0 4a1 1 0 0 0-1 1 1 1 0 0 0 1 1 1 1 0 0 0 1-1 1 1 0 0 0-1-1z"
          fill="currentColor" stroke="currentColor" stroke-width="0.1" stroke-linecap="round" stroke-linejoin="round"/>
</svg>
