<svg class="svg" viewBox="0 0 20 20" xmlns="http://www.w3.org/2000/svg">
    <path d="M0 10a9.97 9.97 0 0 0 2.9 7.031c.127.127.264.127.371-.01l.44-.498c.117-.127.107-.244-.01-.37A8.84 8.84 0 0 1 1.191 10c0-4.805 3.985-8.799 8.809-8.799S18.809 5.195 18.809 10a8.84 8.84 0 0 1-2.51 6.152c-.117.127-.127.244-.01.371l.44.498c.107.137.244.137.37.01A9.952 9.952 0 0 0 20 10c0-5.479-4.482-10-10-10S0 4.521 0 10Zm2.842 0a7.1 7.1 0 0 0 1.943 4.893c.127.136.264.127.381 0l.44-.489c.126-.127.107-.244-.01-.38A5.99 5.99 0 0 1 4.043 10c0-3.262 2.686-5.957 5.957-5.957S15.957 6.738 15.957 10c0 1.543-.586 2.95-1.553 4.014-.117.136-.136.254-.01.38l.45.499c.107.127.254.136.37 0A7.144 7.144 0 0 0 17.159 10c0-3.926-3.213-7.158-7.158-7.158-3.945 0-7.158 3.232-7.158 7.158Zm.84 8.867c-.293.332-.118.801.341.801h11.934c.459 0 .635-.479.352-.8l-5.899-6.67a.558.558 0 0 0-.84 0ZM5.684 10c0 1.035.36 1.982.986 2.734.107.137.244.137.371 0l.459-.478c.117-.117.107-.244.02-.381A3.08 3.08 0 0 1 6.885 10C6.885 8.3 8.3 6.885 10 6.885c1.7 0 3.115 1.416 3.115 3.115a3.08 3.08 0 0 1-.635 1.875c-.097.137-.107.264.02.39l.459.47c.117.136.264.136.371 0 .625-.753.986-1.7.986-2.735 0-2.363-1.943-4.316-4.316-4.316-2.373 0-4.316 1.953-4.316 4.316Z"/>
</svg>
