<svg class="svg" viewBox="0 0 15.723 20.4" xmlns="http://www.w3.org/2000/svg">
    <path d="M11.396 4.668c-1.455 0-2.646.889-3.408.889-.81 0-1.865-.83-3.134-.83C2.44 4.727 0 6.719 0 10.469c0 2.344.898 4.814 2.021 6.406.958 1.348 1.797 2.451 3.008 2.451 1.192 0 1.72-.79 3.203-.79 1.504 0 1.846.77 3.165.77 1.308 0 2.177-1.2 3.007-2.382.918-1.358 1.309-2.676 1.319-2.744-.079-.02-2.579-1.045-2.579-3.907 0-2.48 1.963-3.593 2.08-3.681-1.298-1.865-3.28-1.924-3.828-1.924Zm-.683-1.582c.596-.723 1.016-1.709 1.016-2.705 0-.137-.01-.274-.03-.381-.976.04-2.148.645-2.842 1.465-.556.625-1.064 1.62-1.064 2.617 0 .156.03.303.039.352.059.01.156.029.264.029.869 0 1.963-.586 2.617-1.377Z"/>
</svg>
