<svg class="svg" xmlns="http://www.w3.org/2000/svg" viewBox="0 0 234.61 190.63">
    <mask id="a" fill="#ffffff">
        <path fill-rule="evenodd" d="M0 0h213.686v130.158H0z"/>
    </mask>
    <g fill="none" fill-rule="evenodd">
        <path d="M14 13.99h223.015V237.12H14z"/>
        <g fill="#1a1918">
            <path d="M83.267 18.594h-64.72a9.268 9.268 0 0 0-9.293 9.297v74.376a9.268 9.268 0 0 0 9.293 9.297H66.94l-3.921 9.297H18.547c-10.334 0-18.548-8.367-18.548-18.594V27.891C0 17.664 8.213 9.297 18.547 9.297h71.792zm83.956 13.946v65.079a4.643 4.643 0 0 1-4.646 4.648h-52.761L140.86 61.36c2.119-2.817 3.039-7.605 1.46-10.756-1.571-3.152-5.372-4.119-8.894-4.119h-26.334s4.107-9.483 7.926-18.594h47.363c2.583 0 4.841 2.092 4.841 4.649zM18.593 97.619v-65.2c0-2.557 2.11-4.528 4.693-4.528h52.91L44.89 68.798c-2.118 2.817-2.88 7.456-1.31 10.608 1.58 3.152 5.222 4.267 8.735 4.267h26.409l-7.852 18.594H23.286c-2.584 0-4.693-2.092-4.693-4.648zm148.491 23.242H95.71l7.053-9.26 64.46-.037c5.186 0 9.33-4.174 9.33-9.297V27.891c0-5.123-3.085-9.297-9.33-9.297h-48.301c1.868-4.444 2.686-6.387 3.903-9.297h44.398c10.333 0 18.622 8.367 18.622 18.594l-.037 74.376c0 10.227-8.4 18.594-18.724 18.594zm28.184-34.659V43.956c8.837 0 16.01 7.094 16.01 15.842V70.36c0 8.758-7.173 15.842-16.01 15.842z"
                  mask="url(#a)" transform="translate(23.329 60.475)"/>
            <path d="m134.836 60.475-55.754 74.376h37.17l-18.585 55.783 55.754-74.377h-37.17z"/>
        </g>
    </g>
</svg>
