<svg class="svg" viewBox="0 0 28.906 13.213" xmlns="http://www.w3.org/2000/svg">
    <path
        d="M5.205 13.213h15.352c1.67 0 3.076-.156 4.072-1.152.996-.996 1.142-2.383 1.142-4.053V5.205c0-1.67-.146-3.057-1.142-4.053C23.633.156 22.227 0 20.557 0H5.186C3.545 0 2.139.156 1.143 1.152.146 2.148 0 3.545 0 5.176v2.832c0 1.67.146 3.057 1.143 4.053.996.996 2.402 1.152 4.062 1.152Zm-.264-1.572c-1.005 0-2.06-.137-2.656-.723-.586-.596-.713-1.64-.713-2.647v-3.31c0-1.025.127-2.07.713-2.666.596-.596 1.66-.723 2.686-.723h15.86c1.005 0 2.06.137 2.646.723.595.596.722 1.63.722 2.637v3.34c0 1.005-.127 2.05-.722 2.646-.586.586-1.641.723-2.647.723ZM27.1 9.13c.771-.049 1.806-1.035 1.806-2.53 0-1.484-1.035-2.47-1.806-2.519ZM4.424 10.508H16.26c.674 0 1.064-.098 1.338-.371.273-.274.38-.664.38-1.338V4.414c0-.674-.107-1.064-.38-1.338-.274-.273-.664-.37-1.338-.37H4.453c-.693 0-1.094.097-1.367.37-.264.274-.371.674-.371 1.358v4.365c0 .674.107 1.064.37 1.338.274.273.675.37 1.339.37Z" />
</svg>
