<svg class="svg" viewBox="0 0 20.85 19.365" xmlns="http://www.w3.org/2000/svg">
    <path
        d="M14.004 19.355c1.777 0 3.262-1.484 3.262-3.261 0-1.787-1.485-3.262-3.262-3.262s-3.262 1.475-3.262 3.262c0 1.777 1.485 3.261 3.262 3.261Zm0-1.572a1.71 1.71 0 0 1-1.69-1.69c0-.917.772-1.689 1.69-1.689.918 0 1.69.772 1.69 1.69a1.71 1.71 0 0 1-1.69 1.69ZM6.846 19.355c1.777 0 3.261-1.494 3.261-3.261 0-1.787-1.484-3.262-3.261-3.262-1.778 0-3.262 1.475-3.262 3.262 0 1.777 1.484 3.261 3.262 3.261Zm0-1.572a1.71 1.71 0 0 1-1.69-1.69c0-.917.772-1.689 1.69-1.689.918 0 1.69.772 1.69 1.69a1.71 1.71 0 0 1-1.69 1.69ZM17.588 12.94c1.777 0 3.262-1.485 3.262-3.262 0-1.778-1.485-3.262-3.262-3.262-1.778 0-3.272 1.484-3.272 3.262 0 1.777 1.494 3.261 3.272 3.261Zm0-1.573c-.918 0-1.7-.771-1.7-1.69 0-.917.782-1.689 1.7-1.689.918 0 1.69.772 1.69 1.69a1.71 1.71 0 0 1-1.69 1.69ZM10.43 12.94c1.777 0 3.261-1.485 3.261-3.262 0-1.778-1.484-3.262-3.261-3.262-1.787 0-3.272 1.484-3.272 3.262 0 1.777 1.485 3.261 3.272 3.261Zm0-1.573c-.928 0-1.7-.771-1.7-1.69 0-.917.772-1.689 1.7-1.689.918 0 1.69.772 1.69 1.69a1.71 1.71 0 0 1-1.69 1.69ZM3.262 12.94c1.787 0 3.271-1.485 3.271-3.262 0-1.778-1.484-3.262-3.271-3.262C1.484 6.416 0 7.9 0 9.678c0 1.777 1.484 3.261 3.262 3.261Zm0-1.573a1.71 1.71 0 0 1-1.69-1.69c0-.917.772-1.689 1.69-1.689.918 0 1.699.772 1.699 1.69 0 .918-.781 1.69-1.7 1.69ZM14.004 6.514c1.777 0 3.262-1.475 3.262-3.252C17.266 1.484 15.78 0 14.004 0s-3.262 1.484-3.262 3.262c0 1.777 1.485 3.252 3.262 3.252Zm0-1.573c-.918 0-1.69-.771-1.69-1.68 0-.917.772-1.689 1.69-1.689.918 0 1.69.772 1.69 1.69 0 .908-.772 1.68-1.69 1.68ZM6.846 6.514c1.777 0 3.261-1.475 3.261-3.252C10.107 1.484 8.623 0 6.846 0 5.068 0 3.584 1.484 3.584 3.262c0 1.777 1.484 3.252 3.262 3.252Zm0-1.573c-.918 0-1.69-.771-1.69-1.68 0-.917.772-1.689 1.69-1.689.918 0 1.69.772 1.69 1.69 0 .908-.772 1.68-1.69 1.68Z" />
</svg>
