<svg class="svg" viewBox="0 0 26.895 15.361" xmlns="http://www.w3.org/2000/svg">
    <path d="M1.406 15.361c.4 0 .733-.127 1.123-.361l9.951-5.86c.694-.41.997-.888.997-1.454 0-.557-.303-1.036-.997-1.446L2.53.38C2.128.147 1.806.02 1.405.02.645.02 0 .605 0 1.69V13.69c0 1.084.645 1.67 1.406 1.67Zm13.418 0c.4 0 .733-.127 1.123-.361l9.961-5.86c.684-.41.986-.888.986-1.454 0-.557-.302-1.036-.986-1.446L15.948.38c-.391-.234-.723-.36-1.124-.36-.761 0-1.406.585-1.406 1.67V13.69c0 1.084.645 1.67 1.406 1.67Z"/>
</svg>
