<svg class="svg" viewBox="0 0 24.297 19.795" xmlns="http://www.w3.org/2000/svg">
    <path
        d="M3.066 15.264h2.422V13.69H3.086c-.977 0-1.514-.517-1.514-1.533V3.115c0-1.015.537-1.543 1.514-1.543H16.27c.966 0 1.523.528 1.523 1.543v2.041h1.572V3.027C19.365 1.016 18.33 0 16.3 0H3.066C1.016 0 0 1.016 0 3.027v9.21c0 2.02 1.016 3.027 3.066 3.027Zm4.825 4.521h13.34c2.03 0 3.066-1.015 3.066-3.027v-9.21c0-2.01-1.035-3.027-3.067-3.027H7.89c-2.05 0-3.066 1.016-3.066 3.028v9.209c0 2.021 1.016 3.027 3.067 3.027Zm.02-1.572c-.977 0-1.515-.518-1.515-1.533V7.637c0-1.016.538-1.543 1.514-1.543h13.291c.967 0 1.524.527 1.524 1.543v9.043c0 1.015-.557 1.533-1.524 1.533Z" />
</svg>
