<svg class="svg" viewBox="0 0 23.027 17.998" xmlns="http://www.w3.org/2000/svg">
    <path d="M3.066 17.998h16.895c2.05 0 3.066-1.016 3.066-3.027V3.047c0-2.012-1.015-3.027-3.066-3.027H3.066C1.026.02 0 1.025 0 3.047V14.97c0 2.021 1.025 3.027 3.066 3.027Zm.02-1.572c-.977 0-1.514-.518-1.514-1.533V3.125c0-1.016.537-1.533 1.514-1.533H19.94c.967 0 1.514.517 1.514 1.533v11.768c0 1.015-.547 1.533-1.514 1.533Zm4.355.303h1.534V1.299H7.44ZM5.566 5.215a.575.575 0 0 0 .557-.547.568.568 0 0 0-.557-.547h-2.1a.559.559 0 0 0-.546.547c0 .283.254.547.547.547Zm0 2.53a.576.576 0 0 0 .557-.558c0-.292-.264-.537-.557-.537h-2.1a.55.55 0 0 0-.546.537c0 .293.254.557.547.557Zm0 2.519c.293 0 .557-.244.557-.537a.568.568 0 0 0-.557-.547h-2.1a.559.559 0 0 0-.546.547.55.55 0 0 0 .547.537Z"/>
</svg>
