<svg class="svg" viewBox="0 0 26.211 18.875" xmlns="http://www.w3.org/2000/svg">
    <path d="M10.527 18.055c.645 0 1.104-.458 1.104-1.093V1.982c0-.635-.46-1.153-1.123-1.153-.46 0-.772.195-1.26.674l-4.17 3.906a.34.34 0 0 1-.244.088H2.041C.713 5.497 0 6.229 0 7.636v3.632c0 1.416.713 2.14 2.041 2.14h2.793a.34.34 0 0 1 .244.087l4.17 3.945c.44.43.82.615 1.28.615Zm4.59-4.462c.322.224.781.156 1.045-.225.752-.986 1.201-2.441 1.201-3.936 0-1.494-.449-2.939-1.2-3.935-.265-.38-.723-.459-1.046-.225-.4.274-.459.762-.156 1.162.566.782.889 1.866.889 2.998 0 1.133-.332 2.207-.89 2.998-.292.41-.243.88.157 1.163Zm3.623 2.549c.362.244.81.156 1.075-.215 1.25-1.72 1.982-4.082 1.982-6.495 0-2.412-.723-4.794-1.983-6.494-.263-.37-.712-.459-1.074-.214-.361.244-.42.703-.136 1.103 1.064 1.504 1.68 3.525 1.68 5.605 0 2.08-.636 4.082-1.68 5.606-.274.4-.225.86.136 1.104Zm3.662 2.587c.332.245.81.147 1.075-.244 1.709-2.47 2.734-5.605 2.734-9.053 0-3.457-1.055-6.572-2.734-9.052-.264-.4-.743-.489-1.075-.244-.37.254-.42.713-.156 1.113 1.514 2.236 2.47 5.049 2.47 8.183 0 3.125-.956 5.957-2.47 8.184-.264.4-.215.86.156 1.113Z"/>
</svg>
