<svg class="svg" viewBox="0 0 1024 1024" xmlns="http://www.w3.org/2000/svg">
    <path d="M430.8 291c-4.4-2.2-9.2-3.2-13.8-3.2-7.2 0-14.2 2.4-20 7L266.6 400H161c-17.6 0-32 14.4-32 32v160c0 17.6 14.4 32 32 32h105.6L397 729c5.8 4.6 13 7 20 7 4.6 0 9.4-1 13.8-3.2C442 727.4 449 716.2 449 704V320c0-12.4-7-23.6-18.2-29zM895 512c0-118.6-46.4-229.6-130.8-313-9.4-9.4-24.6-9.2-34 .2-9.4 9.4-9.2 24.6.2 34 75.2 74.2 116.4 173.2 116.4 278.8 0 105.6-41.4 204.6-116.4 278.8-9.4 9.4-9.6 24.6-.2 34 4.6 4.8 10.8 7.2 17 7.2 6 0 12.2-2.4 16.8-7 84.6-83.2 131-194.4 131-313z"
          fill="currentColor" stroke="currentColor" stroke-width="0.1" stroke-linecap="round" stroke-linejoin="round"/>
    <path d="M769.8 512c0-87-33.2-168.6-93.6-229.8-9.4-9.4-24.6-9.6-34-.2-9.4 9.4-9.6 24.6-.2 34 51.4 52.2 79.8 121.8 79.8 196.2 0 74.4-28.4 144-79.8 196.2-9.4 9.4-9.2 24.6.2 34 4.6 4.6 10.8 7 16.8 7 6.2 0 12.4-2.4 17-7.2 60.4-61.6 93.8-143.2 93.8-230.2z"
          fill="currentColor" stroke="currentColor" stroke-width="0.1" stroke-linecap="round" stroke-linejoin="round"/>
    <path d="M575 365c-9.4-9.4-24.6-9.6-34-.2-9.4 9.4-9.6 24.6-.2 34 29.6 30 46 70.2 46 113.2 0 42.8-16.4 83-46 113.2-9.4 9.4-9.2 24.6.2 34 4.6 4.6 10.8 7 16.8 7 6.2 0 12.4-2.4 17-7.2 38.6-39.2 59.8-91.2 59.8-146.8.2-55.8-21-108-59.6-147.2z"
          fill="currentColor" stroke="currentColor" stroke-width="0.1" stroke-linecap="round" stroke-linejoin="round"/>
</svg>
