<svg class="svg" viewBox="0 0 17.334 23.486" xmlns="http://www.w3.org/2000/svg">
    <path
        d="M3.066 22.041h11.202c2.04 0 3.066-1.016 3.066-3.027V9.268c0-2.012-1.025-3.028-3.066-3.028h-2.725v1.572h2.695c.967 0 1.524.528 1.524 1.543v9.57c0 1.016-.557 1.544-1.524 1.544H3.086c-.977 0-1.514-.528-1.514-1.543v-9.57c0-1.016.537-1.543 1.514-1.543H5.79V6.24H3.066C1.026 6.24 0 7.256 0 9.268v9.746c0 2.011 1.025 3.027 3.066 3.027Zm5.596-7.646c.42 0 .781-.352.781-.762V3.603L9.385 2.14l.654.693 1.484 1.582a.698.698 0 0 0 .528.234c.4 0 .713-.293.713-.693 0-.205-.088-.361-.235-.508L9.23.264C9.033.068 8.867 0 8.662 0c-.195 0-.361.068-.566.264L4.795 3.447a.681.681 0 0 0-.225.508c0 .4.293.693.703.693.186 0 .4-.078.538-.234l1.474-1.582.664-.693-.058 1.465v10.029c0 .41.351.762.771.762Z" />
</svg>
