<svg class="svg" viewBox="0 0 24.502 16.787" xmlns="http://www.w3.org/2000/svg">
    <path d="M.547 3.818h2.715c.351 0 .556-.214.556-.556V.566c0-.36-.205-.566-.556-.566H.547C.215 0 0 .225 0 .566v2.696c0 .322.215.556.547.556Zm0 6.475h2.715c.351 0 .556-.205.556-.547V7.051c0-.371-.205-.576-.556-.576H.547c-.332 0-.547.224-.547.576v2.695c0 .322.215.547.547.547Zm0 6.475H3.27c.342 0 .547-.206.547-.547v-2.696c0-.37-.205-.576-.547-.576H.547c-.332 0-.547.225-.547.576v2.696c0 .322.215.547.547.547Zm9.13-.274h11.856c1.983 0 2.969-.976 2.969-2.92V3.204c0-1.944-.986-2.92-2.969-2.92H9.678c-1.963 0-2.96.976-2.96 2.92v10.37c0 1.944.997 2.92 2.96 2.92Zm.02-1.553c-.918 0-1.426-.498-1.426-1.455V3.291c0-.967.508-1.455 1.426-1.455h11.817c.908 0 1.435.488 1.435 1.455v10.195c0 .957-.527 1.455-1.435 1.455Z"/>
</svg>
