<svg class="svg" viewBox="0 0 20.664 20.479" xmlns="http://www.w3.org/2000/svg">
    <path
        d="M3.066 15.957h2.471v-1.572H3.086c-.977 0-1.514-.528-1.514-1.543V3.135c0-1.016.537-1.543 1.514-1.543h9.756c.967 0 1.513.527 1.513 1.543v2.138h1.573V3.047c0-2.012-1.026-3.027-3.057-3.027H3.066C1.016.02 0 1.035 0 3.047v9.883c0 2.011 1.016 3.027 3.066 3.027Zm4.737 4.521h9.804c2.032 0 3.057-1.015 3.057-3.027V7.568c0-2.011-1.025-3.027-3.057-3.027H7.803c-2.051 0-3.067 1.006-3.067 3.027v9.883c0 2.012 1.016 3.027 3.067 3.027Zm.02-1.572c-.968 0-1.514-.527-1.514-1.543V7.656c0-1.015.546-1.543 1.513-1.543h9.756c.967 0 1.514.528 1.514 1.543v9.707c0 1.016-.547 1.543-1.514 1.543Z" />
</svg>
