<svg class="svg" viewBox="0 0 21.123 21.201" xmlns="http://www.w3.org/2000/svg">
    <path d="M10.557 15.576c2.714 0 4.97-2.256 4.97-4.98 0-2.735-2.255-4.99-4.97-4.99s-4.971 2.255-4.971 4.99c0 2.724 2.256 4.98 4.97 4.98Zm.01-11.777c.458 0 .84-.381.84-.85V.85c0-.468-.382-.849-.84-.849a.85.85 0 0 0-.85.85v2.1c0 .468.38.849.85.849ZM15.351 5.8a.858.858 0 0 0 1.2 0l1.495-1.494a.867.867 0 0 0 0-1.202.855.855 0 0 0-1.192 0L15.352 4.61a.855.855 0 0 0 0 1.192Zm1.982 4.795c0 .459.39.84.85.84h2.1c.458 0 .839-.381.839-.84 0-.46-.38-.85-.84-.85h-2.1c-.458 0-.849.39-.849.85Zm-1.982 4.795a.855.855 0 0 0 0 1.191l1.503 1.514a.874.874 0 0 0 1.192-.01.855.855 0 0 0 0-1.191l-1.504-1.504a.874.874 0 0 0-1.191 0Zm-4.786 2.002c-.468 0-.85.38-.85.84v2.109c0 .459.382.84.85.84.46 0 .84-.381.84-.84v-2.11c0-.459-.38-.84-.84-.84ZM5.771 15.39a.887.887 0 0 0-1.2 0l-1.495 1.494a.864.864 0 0 0-.01 1.191.887.887 0 0 0 1.202.01l1.494-1.504a.864.864 0 0 0 .01-1.191ZM3.79 10.596c0-.46-.39-.85-.85-.85H.84c-.458 0-.839.39-.839.85 0 .459.38.84.84.84h2.1c.458 0 .85-.381.85-.84ZM5.762 5.8c.322-.313.322-.87.01-1.192L4.276 3.105c-.322-.312-.869-.322-1.191 0-.322.333-.322.88-.01 1.192L4.57 5.8a.855.855 0 0 0 1.192 0Z"/>
</svg>
