<svg class="svg" viewBox="0 0 22.487 16.24" xmlns="http://www.w3.org/2000/svg">
    <path d="M11.242 16.24c.215 0 .4-.097.781-.468l2.383-2.286c.146-.146.185-.361.049-.537-.635-.82-1.836-1.533-3.213-1.533-1.416 0-2.617.742-3.252 1.592-.098.156-.059.332.097.478l2.373 2.285c.381.362.567.47.782.47Zm-5.713-5.312c.215.205.478.175.674-.04 1.172-1.298 3.086-2.245 5.039-2.236 1.972-.01 3.886.967 5.078 2.266.176.205.42.195.635 0l1.513-1.504c.157-.156.176-.371.03-.547-1.475-1.806-4.21-3.164-7.256-3.164-3.047 0-5.782 1.358-7.256 3.164-.147.176-.137.371.03.547ZM1.476 6.846c.195.185.469.185.654-.01 2.403-2.549 5.567-3.897 9.112-3.897 3.564 0 6.748 1.358 9.13 3.907.176.175.44.166.635-.02l1.348-1.347a.39.39 0 0 0 .03-.557C20.088 2.09 15.772.01 11.241.01 6.72.01 2.384 2.09.099 4.922c-.137.166-.137.38.03.557Z"/>
</svg>
